<svg width="71" height="19" viewBox="0 0 71 19" fill="none" xmlns="http://www.w3.org/2000/svg">
<path d="M0.317425 15.6383C0.317425 16.8984 1.33895 17.9199 2.59906 17.9199H11.9019C12.9334 17.9199 13.7696 17.0837 13.7696 16.0522V16.0522C13.7696 15.0208 12.9334 14.1846 11.9019 14.1846H6.85414C6.81714 14.1846 6.78715 14.1546 6.78715 14.1176V14.1176C6.78715 14.0981 6.79563 14.0796 6.81037 14.0669L8.56938 12.5488C12.5611 9.19189 13.5743 7.4707 13.5743 5.41992C13.5743 2.16064 10.9009 0 6.71391 0C3.5168 0 1.18809 1.40452 0.345416 3.79783C-0.057915 4.94335 0.982423 5.95703 2.19688 5.95703V5.95703C3.42118 5.95703 4.29443 4.72137 5.28847 4.00666C5.66854 3.7334 6.1556 3.58887 6.71391 3.58887C8.06889 3.58887 9.04545 4.43115 9.05766 5.81055C9.04545 7.09229 8.22758 7.92236 6.88481 9.05762L1.13138 13.8914C0.615373 14.3249 0.317425 14.9643 0.317425 15.6383V15.6383Z" fill="#256D85"/>
<path d="M26.0596 18.1641C30.8204 18.1641 33.7745 14.9048 33.7745 9.08203C33.7745 3.2959 30.8204 0 26.0596 0C21.2989 0 18.357 3.27148 18.3448 9.08203C18.357 14.8804 21.2989 18.1641 26.0596 18.1641ZM23.1543 9.08203C23.1788 5.40771 24.3506 3.74756 26.0596 3.73535C27.7686 3.74756 28.9527 5.40771 28.9649 9.08203C28.9771 12.8296 27.7686 14.4165 26.0596 14.4287C24.3506 14.4165 23.1421 12.8296 23.1543 9.08203Z" fill="#256D85"/>
<path d="M38.545 15.6383C38.545 16.8984 39.5665 17.9199 40.8266 17.9199H50.1294C51.1609 17.9199 51.9971 17.0837 51.9971 16.0522V16.0522C51.9971 15.0208 51.1609 14.1846 50.1294 14.1846H45.0817C45.0447 14.1846 45.0147 14.1546 45.0147 14.1176V14.1176C45.0147 14.0981 45.0232 14.0796 45.0379 14.0669L46.7969 12.5488C50.7886 9.19189 51.8018 7.4707 51.8018 5.41992C51.8018 2.16064 49.1285 0 44.9414 0C41.7443 0 39.4156 1.40452 38.573 3.79783C38.1696 4.94335 39.21 5.95703 40.4244 5.95703V5.95703C41.6487 5.95703 42.522 4.72137 43.516 4.00666C43.8961 3.7334 44.3831 3.58887 44.9414 3.58887C46.2964 3.58887 47.273 4.43115 47.2852 5.81055C47.273 7.09229 46.4551 7.92236 45.1123 9.05762L39.3589 13.8914C38.8429 14.3249 38.545 14.9643 38.545 15.6383V15.6383Z" fill="#256D85"/>
<path d="M56.6944 15.6383C56.6944 16.8984 57.7159 17.9199 58.976 17.9199H68.2788C69.3103 17.9199 70.1465 17.0837 70.1465 16.0522V16.0522C70.1465 15.0208 69.3103 14.1846 68.2788 14.1846H63.2311C63.1941 14.1846 63.1641 14.1546 63.1641 14.1176V14.1176C63.1641 14.0981 63.1726 14.0796 63.1873 14.0669L64.9463 12.5488C68.938 9.19189 69.9512 7.4707 69.9512 5.41992C69.9512 2.16064 67.2779 0 63.0909 0C59.8938 0 57.565 1.40452 56.7224 3.79783C56.319 4.94335 57.3594 5.95703 58.5738 5.95703V5.95703C59.7981 5.95703 60.6714 4.72137 61.6654 4.00666C62.0455 3.7334 62.5326 3.58887 63.0909 3.58887C64.4458 3.58887 65.4224 4.43115 65.4346 5.81055C65.4224 7.09229 64.6045 7.92236 63.2618 9.05762L57.5083 13.8914C56.9923 14.3249 56.6944 14.9643 56.6944 15.6383V15.6383Z" fill="#256D85"/>
</svg>
