<svg width="719" height="79" viewBox="0 0 719 79" fill="none" xmlns="http://www.w3.org/2000/svg">
<mask id="path-1-outside-1_367_450" maskUnits="userSpaceOnUse" x="-0.046875" y="0.320312" width="719" height="79" fill="black">
<rect fill="white" x="-0.046875" y="0.320312" width="719" height="79"/>
<path d="M17.3223 75C18.1878 75 18.9551 74.4433 19.2236 73.6205L23.6455 60.0709C23.914 59.2481 24.6813 58.6914 25.5468 58.6914H48.2305C49.096 58.6914 49.8633 59.2481 50.1318 60.0709L54.5537 73.6205C54.8222 74.4433 55.5895 75 56.455 75H67.9201C69.2942 75 70.2591 73.6461 69.8105 72.3472L46.7777 5.64409C46.4993 4.83784 45.7402 4.29688 44.8872 4.29688H28.8883C28.0362 4.29688 27.2777 4.83671 26.9986 5.64176L3.87361 72.3449C3.42315 73.6442 4.38808 75 5.76328 75H17.3223ZM30.5641 47.2656C29.204 47.2656 28.2406 45.9374 28.663 44.6445L36.5687 20.4469C36.6139 20.3085 36.743 20.2148 36.8887 20.2148V20.2148C37.0343 20.2148 37.1634 20.3085 37.2086 20.4469L45.1143 44.6445C45.5367 45.9374 44.5733 47.2656 43.2132 47.2656H30.5641Z"/>
<path d="M146.219 6.29687C146.219 5.19231 145.323 4.29688 144.219 4.29688H133.668C132.563 4.29688 131.668 5.19231 131.668 6.29687V48.7709C131.668 49.0182 131.467 49.2188 131.22 49.2188V49.2188C131.073 49.2188 130.934 49.1461 130.851 49.0245L115.555 26.7578L100.721 5.16443C100.348 4.62136 99.7313 4.29688 99.0725 4.29688H89.2344C88.1298 4.29688 87.2344 5.19231 87.2344 6.29688V73C87.2344 74.1046 88.1298 75 89.2344 75H99.8828C100.987 75 101.883 74.1046 101.883 73V30.4625C101.883 30.2502 102.055 30.0781 102.267 30.0781V30.0781C102.393 30.0781 102.512 30.1401 102.583 30.2439L132.927 74.1373C133.301 74.6775 133.915 75 134.572 75H144.219C145.323 75 146.219 74.1046 146.219 73V6.29687Z"/>
<path d="M163.898 14.4062C163.898 15.5108 164.794 16.4062 165.898 16.4062H183.578C184.683 16.4062 185.578 17.3017 185.578 18.4063V73C185.578 74.1046 186.474 75 187.578 75H198.129C199.233 75 200.129 74.1046 200.129 73V18.4062C200.129 17.3017 201.024 16.4062 202.129 16.4062H219.809C220.913 16.4062 221.809 15.5108 221.809 14.4062V6.29688C221.809 5.19231 220.913 4.29688 219.809 4.29688H165.898C164.794 4.29688 163.898 5.19231 163.898 6.29688V14.4062Z"/>
<path d="M254.039 6.29687C254.039 5.19231 253.144 4.29688 252.039 4.29688H241.391C240.286 4.29688 239.391 5.19231 239.391 6.29688V73C239.391 74.1046 240.286 75 241.391 75H252.039C253.144 75 254.039 74.1046 254.039 73V6.29687Z"/>
<path d="M274.453 73C274.453 74.1046 275.349 75 276.453 75H287.102C288.206 75 289.102 74.1046 289.102 73V47.7031C289.102 46.5986 289.997 45.7031 291.102 45.7031H316.008C317.112 45.7031 318.008 44.8077 318.008 43.7031V35.5938C318.008 34.4892 317.112 33.5938 316.008 33.5938H291.102C289.997 33.5938 289.102 32.6983 289.102 31.5937V18.4063C289.102 17.3017 289.997 16.4062 291.102 16.4062H319.035C320.14 16.4062 321.035 15.5108 321.035 14.4062V6.29688C321.035 5.19231 320.14 4.29688 319.035 4.29688H276.453C275.349 4.29688 274.453 5.19231 274.453 6.29688V73Z"/>
<path d="M339.203 73C339.203 74.1046 340.099 75 341.203 75H351.852C352.956 75 353.852 74.1046 353.852 73V51.9023C353.852 50.7978 354.747 49.9023 355.852 49.9023H363.839C364.575 49.9023 365.251 50.3061 365.6 50.9535L377.992 73.9488C378.341 74.5963 379.017 75 379.753 75H391.396C392.915 75 393.879 73.3729 393.15 72.0401L380.785 49.438C380.22 48.4038 380.673 47.114 381.707 46.5484C388.511 42.8278 392.23 36.1894 392.23 27.3438C392.23 13.3301 383.002 4.29688 366.938 4.29688H341.203C340.099 4.29688 339.203 5.19231 339.203 6.29688V73ZM355.852 37.9883C354.747 37.9883 353.852 37.0929 353.852 35.9883V18.3086C353.852 17.204 354.747 16.3086 355.852 16.3086H364.203C372.895 16.3574 377.143 20.2148 377.094 27.3438C377.143 34.4238 372.895 37.9883 364.203 37.9883H355.852Z"/>
<path d="M421.252 75C422.118 75 422.885 74.4433 423.153 73.6205L427.575 60.0709C427.844 59.2481 428.611 58.6914 429.477 58.6914H452.16C453.026 58.6914 453.793 59.2481 454.062 60.0709L458.483 73.6205C458.752 74.4433 459.519 75 460.385 75H471.85C473.224 75 474.189 73.6461 473.74 72.3472L450.707 5.64409C450.429 4.83784 449.67 4.29688 448.817 4.29688H432.818C431.966 4.29688 431.207 4.83671 430.928 5.64176L407.803 72.3449C407.353 73.6442 408.318 75 409.693 75H421.252ZM434.494 47.2656C433.134 47.2656 432.17 45.9374 432.593 44.6445L440.498 20.4469C440.544 20.3085 440.673 20.2148 440.818 20.2148V20.2148C440.964 20.2148 441.093 20.3085 441.138 20.4469L449.044 44.6445C449.466 45.9374 448.503 47.2656 447.143 47.2656H434.494Z"/>
<path d="M534.329 25.6467C534.653 26.4669 535.42 27.0508 536.302 27.0508H547.36C548.575 27.0508 549.515 25.9724 549.244 24.7877C546.345 12.0825 534.571 3.32031 519.484 3.32031C500.832 3.32031 486.477 16.7969 486.477 39.7461C486.477 62.1094 499.953 75.9766 519.777 75.9766C537.6 75.9766 550.344 64.6484 550.344 46.0938V39.3047C550.344 38.2001 549.448 37.3047 548.344 37.3047H522.852C521.747 37.3047 520.852 38.2001 520.852 39.3047V46.3398C520.852 47.4444 521.747 48.3398 522.852 48.3398H534.139C535.261 48.3398 536.176 49.2674 536.03 50.3796C535.017 58.0914 529.186 62.9433 519.875 62.9883C508.596 62.9395 501.418 54.4922 501.418 39.5508C501.418 24.707 508.84 16.3574 519.777 16.3086C526.932 16.3539 532.03 19.8431 534.329 25.6467Z"/>
<path d="M584.234 6.29687C584.234 5.19231 583.339 4.29688 582.234 4.29688H571.586C570.481 4.29688 569.586 5.19231 569.586 6.29688V73C569.586 74.1046 570.481 75 571.586 75H582.234C583.339 75 584.234 74.1046 584.234 73V6.29687Z"/>
<path d="M604.648 73C604.648 74.1046 605.544 75 606.648 75H647.766C648.87 75 649.766 74.1046 649.766 73V64.8906C649.766 63.7861 648.87 62.8906 647.766 62.8906H621.297C620.192 62.8906 619.297 61.9952 619.297 60.8906V6.29687C619.297 5.1923 618.401 4.29688 617.297 4.29688H606.648C605.544 4.29688 604.648 5.19231 604.648 6.29688V73Z"/>
<path d="M667.738 73C667.738 74.1046 668.634 75 669.738 75H713.297C714.401 75 715.297 74.1046 715.297 73V64.8906C715.297 63.7861 714.401 62.8906 713.297 62.8906H684.387C683.282 62.8906 682.387 61.9952 682.387 60.8906V47.7031C682.387 46.5986 683.282 45.7031 684.387 45.7031H710.758C711.862 45.7031 712.758 44.8077 712.758 43.7031V35.5938C712.758 34.4892 711.862 33.5938 710.758 33.5938H684.387C683.282 33.5938 682.387 32.6983 682.387 31.5937V18.4063C682.387 17.3017 683.282 16.4062 684.387 16.4062H713.199C714.304 16.4062 715.199 15.5108 715.199 14.4062V6.29688C715.199 5.19231 714.304 4.29688 713.199 4.29688H669.738C668.634 4.29688 667.738 5.19231 667.738 6.29688V73Z"/>
</mask>
<path d="M274.453 73C274.453 74.1046 275.349 75 276.453 75H287.102C288.206 75 289.102 74.1046 289.102 73V47.7031C289.102 46.5986 289.997 45.7031 291.102 45.7031H316.008C317.112 45.7031 318.008 44.8077 318.008 43.7031V35.5938C318.008 34.4892 317.112 33.5938 316.008 33.5938H291.102C289.997 33.5938 289.102 32.6983 289.102 31.5937V18.4063C289.102 17.3017 289.997 16.4062 291.102 16.4062H319.035C320.14 16.4062 321.035 15.5108 321.035 14.4062V6.29688C321.035 5.19231 320.14 4.29688 319.035 4.29688H276.453C275.349 4.29688 274.453 5.19231 274.453 6.29688V73Z" fill="black"/>
<path d="M339.203 73C339.203 74.1046 340.099 75 341.203 75H351.852C352.956 75 353.852 74.1046 353.852 73V51.9023C353.852 50.7978 354.747 49.9023 355.852 49.9023H363.839C364.575 49.9023 365.251 50.3061 365.6 50.9535L377.992 73.9488C378.341 74.5963 379.017 75 379.753 75H391.396C392.915 75 393.879 73.3729 393.15 72.0401L380.785 49.438C380.22 48.4038 380.673 47.114 381.707 46.5484C388.511 42.8278 392.23 36.1894 392.23 27.3438C392.23 13.3301 383.002 4.29688 366.938 4.29688H341.203C340.099 4.29688 339.203 5.19231 339.203 6.29688V73ZM355.852 37.9883C354.747 37.9883 353.852 37.0929 353.852 35.9883V18.3086C353.852 17.204 354.747 16.3086 355.852 16.3086H364.203C372.895 16.3574 377.143 20.2148 377.094 27.3438C377.143 34.4238 372.895 37.9883 364.203 37.9883H355.852Z" fill="black"/>
<path d="M421.252 75C422.118 75 422.885 74.4433 423.153 73.6205L427.575 60.0709C427.844 59.2481 428.611 58.6914 429.477 58.6914H452.16C453.026 58.6914 453.793 59.2481 454.062 60.0709L458.483 73.6205C458.752 74.4433 459.519 75 460.385 75H471.85C473.224 75 474.189 73.6461 473.74 72.3472L450.707 5.64409C450.429 4.83784 449.67 4.29688 448.817 4.29688H432.818C431.966 4.29688 431.207 4.83671 430.928 5.64176L407.803 72.3449C407.353 73.6442 408.318 75 409.693 75H421.252ZM434.494 47.2656C433.134 47.2656 432.17 45.9374 432.593 44.6445L440.498 20.4469C440.544 20.3085 440.673 20.2148 440.818 20.2148V20.2148C440.964 20.2148 441.093 20.3085 441.138 20.4469L449.044 44.6445C449.466 45.9374 448.503 47.2656 447.143 47.2656H434.494Z" fill="black"/>
<path d="M534.329 25.6467C534.653 26.4669 535.42 27.0508 536.302 27.0508H547.36C548.575 27.0508 549.515 25.9724 549.244 24.7877C546.345 12.0825 534.571 3.32031 519.484 3.32031C500.832 3.32031 486.477 16.7969 486.477 39.7461C486.477 62.1094 499.953 75.9766 519.777 75.9766C537.6 75.9766 550.344 64.6484 550.344 46.0938V39.3047C550.344 38.2001 549.448 37.3047 548.344 37.3047H522.852C521.747 37.3047 520.852 38.2001 520.852 39.3047V46.3398C520.852 47.4444 521.747 48.3398 522.852 48.3398H534.139C535.261 48.3398 536.176 49.2674 536.03 50.3796C535.017 58.0914 529.186 62.9433 519.875 62.9883C508.596 62.9395 501.418 54.4922 501.418 39.5508C501.418 24.707 508.84 16.3574 519.777 16.3086C526.932 16.3539 532.03 19.8431 534.329 25.6467Z" fill="black"/>
<path d="M584.234 6.29687C584.234 5.19231 583.339 4.29688 582.234 4.29688H571.586C570.481 4.29688 569.586 5.19231 569.586 6.29688V73C569.586 74.1046 570.481 75 571.586 75H582.234C583.339 75 584.234 74.1046 584.234 73V6.29687Z" fill="black"/>
<path d="M604.648 73C604.648 74.1046 605.544 75 606.648 75H647.766C648.87 75 649.766 74.1046 649.766 73V64.8906C649.766 63.7861 648.87 62.8906 647.766 62.8906H621.297C620.192 62.8906 619.297 61.9952 619.297 60.8906V6.29687C619.297 5.1923 618.401 4.29688 617.297 4.29688H606.648C605.544 4.29688 604.648 5.19231 604.648 6.29688V73Z" fill="black"/>
<path d="M667.738 73C667.738 74.1046 668.634 75 669.738 75H713.297C714.401 75 715.297 74.1046 715.297 73V64.8906C715.297 63.7861 714.401 62.8906 713.297 62.8906H684.387C683.282 62.8906 682.387 61.9952 682.387 60.8906V47.7031C682.387 46.5986 683.282 45.7031 684.387 45.7031H710.758C711.862 45.7031 712.758 44.8077 712.758 43.7031V35.5938C712.758 34.4892 711.862 33.5938 710.758 33.5938H684.387C683.282 33.5938 682.387 32.6983 682.387 31.5937V18.4063C682.387 17.3017 683.282 16.4062 684.387 16.4062H713.199C714.304 16.4062 715.199 15.5108 715.199 14.4062V6.29688C715.199 5.19231 714.304 4.29688 713.199 4.29688H669.738C668.634 4.29688 667.738 5.19231 667.738 6.29688V73Z" fill="black"/>
<path d="M364.203 16.3086L364.22 13.3086L364.212 13.3086H364.203V16.3086ZM377.094 27.3438L374.094 27.3232L374.094 27.3438L374.094 27.3644L377.094 27.3438ZM519.875 62.9883L519.862 65.9883L519.876 65.9883L519.889 65.9882L519.875 62.9883ZM519.777 16.3086L519.796 13.3087L519.78 13.3086L519.764 13.3086L519.777 16.3086ZM115.555 26.7578L113.082 28.4565L115.555 26.7578ZM536.03 50.3796L533.056 49.9887L536.03 50.3796ZM549.244 24.7877L546.32 25.4553L549.244 24.7877ZM534.329 25.6467L537.118 24.5418L534.329 25.6467ZM449.044 44.6445L446.192 45.5762L449.044 44.6445ZM441.138 20.4469L443.99 19.5152L441.138 20.4469ZM440.498 20.4469L437.647 19.5152L440.498 20.4469ZM432.593 44.6445L429.741 43.7128L432.593 44.6445ZM407.803 72.3449L404.969 71.3622L407.803 72.3449ZM430.928 5.64176L433.763 6.62443L430.928 5.64176ZM450.707 5.64409L447.872 6.62327L450.707 5.64409ZM473.74 72.3472L476.576 71.368L473.74 72.3472ZM458.483 73.6205L455.631 74.5512L458.483 73.6205ZM454.062 60.0709L456.913 59.1402L454.062 60.0709ZM427.575 60.0709L424.723 59.1402L427.575 60.0709ZM423.153 73.6205L426.005 74.5512L423.153 73.6205ZM380.785 49.438L378.153 50.8779L380.785 49.438ZM381.707 46.5484L380.268 43.9163L381.707 46.5484ZM393.15 72.0401L395.782 70.6003L393.15 72.0401ZM377.992 73.9488L380.633 72.5256L377.992 73.9488ZM365.6 50.9535L362.959 52.3768L365.6 50.9535ZM132.927 74.1373L135.395 72.4313L132.927 74.1373ZM102.583 30.2439L100.116 31.9499L102.583 30.2439ZM100.721 5.16443L103.194 3.46575L100.721 5.16443ZM130.851 49.0245L128.378 50.7231L130.851 49.0245ZM45.1143 44.6445L47.966 43.7128L45.1143 44.6445ZM37.2086 20.4469L34.357 21.3786L37.2086 20.4469ZM36.5687 20.4469L39.4204 21.3786L36.5687 20.4469ZM28.663 44.6445L25.8113 43.7128L28.663 44.6445ZM26.9986 5.64176L29.8331 6.62443L26.9986 5.64176ZM46.7777 5.64409L43.942 6.62327L46.7777 5.64409ZM54.5537 73.6205L57.4057 72.6898L54.5537 73.6205ZM50.1318 60.0709L47.2799 61.0017L50.1318 60.0709ZM19.2236 73.6205L16.3717 72.6898L19.2236 73.6205ZM22.0756 74.5512L26.4975 61.0016L20.7935 59.1402L16.3717 72.6898L22.0756 74.5512ZM25.5468 61.6914H48.2305V55.6914H25.5468V61.6914ZM47.2799 61.0017L51.7017 74.5512L57.4057 72.6898L52.9838 59.1402L47.2799 61.0017ZM56.455 78H67.9201V72H56.455V78ZM72.6462 71.368L49.6134 4.66491L43.942 6.62327L66.9748 73.3264L72.6462 71.368ZM44.8872 1.29688H28.8883V7.29688H44.8872V1.29688ZM24.1641 4.65908L1.03912 71.3622L6.70811 73.3276L29.8331 6.62443L24.1641 4.65908ZM5.76328 78H17.3223V72H5.76328V78ZM31.5147 45.5762L39.4204 21.3786L33.717 19.5152L25.8113 43.7128L31.5147 45.5762ZM34.357 21.3786L42.2627 45.5762L47.966 43.7128L40.0603 19.5152L34.357 21.3786ZM43.2132 44.2656H30.5641V50.2656H43.2132V44.2656ZM144.219 1.29688H133.668V7.29688H144.219V1.29688ZM128.668 6.29687V48.7709H134.668V6.29687H128.668ZM99.0725 1.29688H89.2344V7.29688H99.0725V1.29688ZM84.2344 6.29688V73H90.2344V6.29688H84.2344ZM89.2344 78H99.8828V72H89.2344V78ZM104.883 73V30.4625H98.8828V73H104.883ZM100.116 31.9499L130.459 75.8433L135.395 72.4313L105.051 28.538L100.116 31.9499ZM134.572 78H144.219V72H134.572V78ZM149.219 73V6.29687H143.219V73H149.219ZM165.898 19.4062H183.578V13.4062H165.898V19.4062ZM182.578 18.4063V73H188.578V18.4063H182.578ZM187.578 78H198.129V72H187.578V78ZM203.129 73V18.4062H197.129V73H203.129ZM202.129 19.4062H219.809V13.4062H202.129V19.4062ZM224.809 14.4062V6.29688H218.809V14.4062H224.809ZM219.809 1.29688H165.898V7.29688H219.809V1.29688ZM160.898 6.29688V14.4062H166.898V6.29688H160.898ZM252.039 1.29688H241.391V7.29688H252.039V1.29688ZM236.391 6.29688V73H242.391V6.29688H236.391ZM241.391 78H252.039V72H241.391V78ZM257.039 73V6.29687H251.039V73H257.039ZM276.453 78H287.102V72H276.453V78ZM292.102 73V47.7031H286.102V73H292.102ZM291.102 48.7031H316.008V42.7031H291.102V48.7031ZM321.008 43.7031V35.5938H315.008V43.7031H321.008ZM316.008 30.5938H291.102V36.5938H316.008V30.5938ZM292.102 31.5937V18.4063H286.102V31.5937H292.102ZM291.102 19.4062H319.035V13.4062H291.102V19.4062ZM324.035 14.4062V6.29688H318.035V14.4062H324.035ZM319.035 1.29688H276.453V7.29688H319.035V1.29688ZM271.453 6.29688V73H277.453V6.29688H271.453ZM341.203 78H351.852V72H341.203V78ZM356.852 73V51.9023H350.852V73H356.852ZM355.852 52.9023H363.839V46.9023H355.852V52.9023ZM362.959 52.3768L375.351 75.372L380.633 72.5256L368.241 49.5303L362.959 52.3768ZM379.753 78H391.396V72H379.753V78ZM395.782 70.6003L383.417 47.9982L378.153 50.8779L390.518 73.4799L395.782 70.6003ZM383.147 49.1805C391.037 44.8654 395.23 37.1359 395.23 27.3438H389.23C389.23 35.243 385.984 40.7902 380.268 43.9163L383.147 49.1805ZM395.23 27.3438C395.23 19.6564 392.68 13.0418 387.65 8.36758C382.645 3.71618 375.52 1.29688 366.938 1.29688V7.29688C374.419 7.29688 379.941 9.39417 383.566 12.7628C387.166 16.1086 389.23 21.0174 389.23 27.3438H395.23ZM366.938 1.29688H341.203V7.29688H366.938V1.29688ZM336.203 6.29688V73H342.203V6.29688H336.203ZM356.852 35.9883V18.3086H350.852V35.9883H356.852ZM355.852 19.3086H364.203V13.3086H355.852V19.3086ZM364.186 19.3085C368.154 19.3308 370.568 20.2273 371.958 21.4357C373.266 22.5717 374.114 24.3747 374.094 27.3232L380.094 27.3643C380.122 23.1839 378.871 19.4937 375.894 16.9066C373 14.3918 368.944 13.3352 364.22 13.3086L364.186 19.3085ZM374.094 27.3644C374.114 30.2786 373.274 31.9647 372.011 33.0115C370.635 34.1526 368.217 34.9883 364.203 34.9883V40.9883C368.88 40.9883 372.932 40.0417 375.841 37.6306C378.863 35.1251 380.122 31.489 380.094 27.3231L374.094 27.3644ZM364.203 34.9883H355.852V40.9883H364.203V34.9883ZM426.005 74.5512L430.427 61.0016L424.723 59.1402L420.301 72.6898L426.005 74.5512ZM429.477 61.6914H452.16V55.6914H429.477V61.6914ZM451.21 61.0017L455.631 74.5512L461.335 72.6898L456.913 59.1402L451.21 61.0017ZM460.385 78H471.85V72H460.385V78ZM476.576 71.368L453.543 4.66491L447.872 6.62327L470.905 73.3264L476.576 71.368ZM448.817 1.29688H432.818V7.29688H448.817V1.29688ZM428.094 4.65908L404.969 71.3622L410.638 73.3276L433.763 6.62443L428.094 4.65908ZM409.693 78H421.252V72H409.693V78ZM435.444 45.5762L443.35 21.3786L437.647 19.5152L429.741 43.7128L435.444 45.5762ZM438.287 21.3786L446.192 45.5762L451.896 43.7128L443.99 19.5152L438.287 21.3786ZM447.143 44.2656H434.494V50.2656H447.143V44.2656ZM536.302 30.0508H547.36V24.0508H536.302V30.0508ZM552.169 24.1201C548.909 9.83688 535.739 0.320312 519.484 0.320312V6.32031C533.403 6.32031 543.78 14.3282 546.32 25.4553L552.169 24.1201ZM519.484 0.320312C509.414 0.320312 500.349 3.97245 493.81 10.862C487.275 17.7475 483.477 27.6371 483.477 39.7461H489.477C489.477 28.9058 492.856 20.5826 498.162 14.9925C503.464 9.40646 510.902 6.32031 519.484 6.32031V0.320312ZM483.477 39.7461C483.477 51.5288 487.035 61.371 493.5 68.295C499.982 75.2367 509.138 78.9766 519.777 78.9766V72.9766C510.593 72.9766 503.098 69.7828 497.886 64.2001C492.656 58.5997 489.477 50.3266 489.477 39.7461H483.477ZM519.777 78.9766C529.324 78.9766 537.75 75.9344 543.812 70.1665C549.893 64.3803 553.344 56.0875 553.344 46.0938H547.344C547.344 54.6547 544.423 61.3033 539.676 65.8198C534.91 70.3546 528.053 72.9766 519.777 72.9766V78.9766ZM553.344 46.0938V39.3047H547.344V46.0938H553.344ZM548.344 34.3047H522.852V40.3047H548.344V34.3047ZM517.852 39.3047V46.3398H523.852V39.3047H517.852ZM522.852 51.3398H534.139V45.3398H522.852V51.3398ZM533.056 49.9887C532.64 53.1537 531.276 55.5599 529.198 57.2097C527.092 58.8825 524.007 59.9683 519.861 59.9883L519.889 65.9882C525.054 65.9633 529.54 64.6006 532.93 61.9083C536.349 59.193 538.407 55.3173 539.005 50.7705L533.056 49.9887ZM519.888 59.9883C515.06 59.9674 511.337 58.1865 508.755 54.9745C506.109 51.6841 504.418 46.5801 504.418 39.5508H498.418C498.418 47.4629 500.315 54.0532 504.079 58.734C507.905 63.4932 513.41 65.9603 519.862 65.9883L519.888 59.9883ZM504.418 39.5508C504.418 32.5976 506.157 27.5416 508.82 24.2784C511.431 21.0794 515.144 19.3293 519.791 19.3086L519.764 13.3086C513.473 13.3367 508.007 15.7858 504.172 20.4848C500.39 25.1195 498.418 31.6602 498.418 39.5508H504.418ZM519.758 19.3085C525.796 19.3467 529.729 22.1808 531.539 26.7516L537.118 24.5418C534.33 17.5054 528.069 13.361 519.796 13.3087L519.758 19.3085ZM582.234 1.29688H571.586V7.29688H582.234V1.29688ZM566.586 6.29688V73H572.586V6.29688H566.586ZM571.586 78H582.234V72H571.586V78ZM587.234 73V6.29687H581.234V73H587.234ZM606.648 78H647.766V72H606.648V78ZM652.766 73V64.8906H646.766V73H652.766ZM647.766 59.8906H621.297V65.8906H647.766V59.8906ZM622.297 60.8906V6.29687H616.297V60.8906H622.297ZM617.297 1.29688H606.648V7.29688H617.297V1.29688ZM601.648 6.29688V73H607.648V6.29688H601.648ZM669.738 78H713.297V72H669.738V78ZM718.297 73V64.8906H712.297V73H718.297ZM713.297 59.8906H684.387V65.8906H713.297V59.8906ZM685.387 60.8906V47.7031H679.387V60.8906H685.387ZM684.387 48.7031H710.758V42.7031H684.387V48.7031ZM715.758 43.7031V35.5938H709.758V43.7031H715.758ZM710.758 30.5938H684.387V36.5938H710.758V30.5938ZM685.387 31.5937V18.4063H679.387V31.5937H685.387ZM684.387 19.4062H713.199V13.4062H684.387V19.4062ZM718.199 14.4062V6.29688H712.199V14.4062H718.199ZM713.199 1.29688H669.738V7.29688H713.199V1.29688ZM664.738 6.29688V73H670.738V6.29688H664.738ZM133.324 47.3258L118.027 25.0591L113.082 28.4565L128.378 50.7231L133.324 47.3258ZM118.027 25.0591L103.194 3.46575L98.2482 6.8631L113.082 28.4565L118.027 25.0591ZM669.738 72C670.291 72 670.738 72.4477 670.738 73H664.738C664.738 75.7614 666.977 78 669.738 78V72ZM606.648 1.29688C603.887 1.29688 601.648 3.53545 601.648 6.29688H607.648C607.648 6.84916 607.201 7.29688 606.648 7.29688V1.29688ZM622.297 6.29687C622.297 3.53545 620.058 1.29688 617.297 1.29688V7.29688C616.745 7.29688 616.297 6.84916 616.297 6.29687H622.297ZM621.297 59.8906C621.849 59.8906 622.297 60.3383 622.297 60.8906H616.297C616.297 63.652 618.535 65.8906 621.297 65.8906V59.8906ZM652.766 64.8906C652.766 62.1292 650.527 59.8906 647.766 59.8906V65.8906C647.213 65.8906 646.766 65.4429 646.766 64.8906H652.766ZM647.766 78C650.527 78 652.766 75.7614 652.766 73H646.766C646.766 72.4477 647.213 72 647.766 72V78ZM606.648 72C607.201 72 607.648 72.4477 607.648 73H601.648C601.648 75.7614 603.887 78 606.648 78V72ZM582.234 78C584.996 78 587.234 75.7614 587.234 73H581.234C581.234 72.4477 581.682 72 582.234 72V78ZM566.586 73C566.586 75.7614 568.825 78 571.586 78V72C572.138 72 572.586 72.4477 572.586 73H566.586ZM571.586 1.29688C568.825 1.29688 566.586 3.53545 566.586 6.29688H572.586C572.586 6.84916 572.138 7.29688 571.586 7.29688V1.29688ZM582.234 7.29688C581.682 7.29688 581.234 6.84916 581.234 6.29687H587.234C587.234 3.53545 584.996 1.29688 582.234 1.29688V7.29688ZM534.139 51.3398C533.869 51.3398 533.592 51.2275 533.381 51.004C533.155 50.7661 533.003 50.3906 533.056 49.9887L539.005 50.7705C539.416 47.64 536.842 45.3398 534.139 45.3398V51.3398ZM517.852 46.3398C517.852 49.1013 520.09 51.3398 522.852 51.3398V45.3398C523.404 45.3398 523.852 45.7876 523.852 46.3398H517.852ZM522.852 34.3047C520.09 34.3047 517.852 36.5433 517.852 39.3047H523.852C523.852 39.857 523.404 40.3047 522.852 40.3047V34.3047ZM553.344 39.3047C553.344 36.5433 551.105 34.3047 548.344 34.3047V40.3047C547.791 40.3047 547.344 39.857 547.344 39.3047H553.344ZM547.36 30.0508C550.316 30.0508 552.908 27.359 552.169 24.1201L546.32 25.4553C546.231 25.0687 546.353 24.6816 546.568 24.4269C546.772 24.1852 547.065 24.0508 547.36 24.0508V30.0508ZM536.302 24.0508C536.796 24.0508 537.045 24.3595 537.118 24.5418L531.539 26.7516C532.261 28.5743 534.044 30.0508 536.302 30.0508V24.0508ZM446.192 45.5762C445.981 44.9298 446.463 44.2656 447.143 44.2656V50.2656C450.543 50.2656 452.952 46.9449 451.896 43.7128L446.192 45.5762ZM440.818 23.2148C439.666 23.2148 438.645 22.4739 438.287 21.3786L443.99 19.5152C443.542 18.1431 442.262 17.2148 440.818 17.2148V23.2148ZM443.35 21.3786C442.992 22.4739 441.971 23.2148 440.818 23.2148V17.2148C439.375 17.2148 438.095 18.1431 437.647 19.5152L443.35 21.3786ZM429.741 43.7128C428.685 46.9449 431.094 50.2656 434.494 50.2656V44.2656C435.174 44.2656 435.656 44.9298 435.444 45.5762L429.741 43.7128ZM404.969 71.3622C403.843 74.6105 406.255 78 409.693 78V72C410.381 72 410.863 72.6779 410.638 73.3276L404.969 71.3622ZM432.818 1.29688C430.688 1.29688 428.792 2.64645 428.094 4.65908L433.763 6.62443C433.623 7.02696 433.244 7.29688 432.818 7.29688V1.29688ZM453.543 4.66491C452.847 2.64928 450.949 1.29688 448.817 1.29688V7.29688C448.39 7.29688 448.011 7.02639 447.872 6.62327L453.543 4.66491ZM471.85 78C475.285 78 477.697 74.6153 476.576 71.368L470.905 73.3264C470.68 72.6769 471.163 72 471.85 72V78ZM455.631 74.5512C456.303 76.6082 458.221 78 460.385 78V72C460.817 72 461.201 72.2784 461.335 72.6898L455.631 74.5512ZM452.16 61.6914C451.727 61.6914 451.344 61.413 451.21 61.0017L456.913 59.1402C456.242 57.0832 454.324 55.6914 452.16 55.6914V61.6914ZM430.427 61.0016C430.293 61.413 429.909 61.6914 429.477 61.6914V55.6914C427.313 55.6914 425.395 57.0832 424.723 59.1402L430.427 61.0016ZM420.301 72.6898C420.436 72.2784 420.819 72 421.252 72V78C423.416 78 425.334 76.6082 426.005 74.5512L420.301 72.6898ZM356.852 18.3086C356.852 18.8609 356.404 19.3086 355.852 19.3086V13.3086C353.09 13.3086 350.852 15.5472 350.852 18.3086H356.852ZM350.852 35.9883C350.852 38.7497 353.09 40.9883 355.852 40.9883V34.9883C356.404 34.9883 356.852 35.436 356.852 35.9883H350.852ZM341.203 1.29688C338.442 1.29688 336.203 3.53545 336.203 6.29688H342.203C342.203 6.84916 341.755 7.29688 341.203 7.29688V1.29688ZM383.417 47.9982C383.565 48.2677 383.562 48.5546 383.496 48.7552C383.434 48.9429 383.31 49.0914 383.147 49.1805L380.268 43.9163C377.946 45.1859 376.704 48.2287 378.153 50.8779L383.417 47.9982ZM391.396 78C395.194 78 397.605 73.9323 395.782 70.6003L390.518 73.4799C390.154 72.8135 390.636 72 391.396 72V78ZM375.351 75.372C376.224 76.9907 377.914 78 379.753 78V72C380.12 72 380.459 72.2019 380.633 72.5256L375.351 75.372ZM363.839 52.9023C363.471 52.9023 363.133 52.7005 362.959 52.3768L368.241 49.5303C367.368 47.9116 365.678 46.9023 363.839 46.9023V52.9023ZM356.852 51.9023C356.852 52.4546 356.404 52.9023 355.852 52.9023V46.9023C353.09 46.9023 350.852 49.1409 350.852 51.9023H356.852ZM351.852 78C354.613 78 356.852 75.7614 356.852 73H350.852C350.852 72.4477 351.299 72 351.852 72V78ZM341.203 72C341.755 72 342.203 72.4477 342.203 73H336.203C336.203 75.7614 338.442 78 341.203 78V72ZM276.453 1.29688C273.692 1.29688 271.453 3.53545 271.453 6.29688H277.453C277.453 6.84916 277.005 7.29688 276.453 7.29688V1.29688ZM324.035 6.29688C324.035 3.53545 321.797 1.29688 319.035 1.29688V7.29688C318.483 7.29688 318.035 6.84916 318.035 6.29688H324.035ZM319.035 19.4062C321.797 19.4062 324.035 17.1677 324.035 14.4062H318.035C318.035 13.854 318.483 13.4062 319.035 13.4062V19.4062ZM292.102 18.4063C292.102 18.9585 291.654 19.4062 291.102 19.4062V13.4062C288.34 13.4062 286.102 15.6448 286.102 18.4063H292.102ZM291.102 30.5938C291.654 30.5938 292.102 31.0415 292.102 31.5937H286.102C286.102 34.3552 288.34 36.5938 291.102 36.5938V30.5938ZM321.008 35.5938C321.008 32.8323 318.769 30.5938 316.008 30.5938V36.5938C315.456 36.5938 315.008 36.146 315.008 35.5938H321.008ZM316.008 48.7031C318.769 48.7031 321.008 46.4645 321.008 43.7031H315.008C315.008 43.1508 315.456 42.7031 316.008 42.7031V48.7031ZM292.102 47.7031C292.102 48.2554 291.654 48.7031 291.102 48.7031V42.7031C288.34 42.7031 286.102 44.9417 286.102 47.7031H292.102ZM287.102 78C289.863 78 292.102 75.7614 292.102 73H286.102C286.102 72.4477 286.549 72 287.102 72V78ZM276.453 72C277.005 72 277.453 72.4477 277.453 73H271.453C271.453 75.7614 273.692 78 276.453 78V72ZM252.039 78C254.8 78 257.039 75.7614 257.039 73H251.039C251.039 72.4477 251.487 72 252.039 72V78ZM236.391 73C236.391 75.7614 238.629 78 241.391 78V72C241.943 72 242.391 72.4477 242.391 73H236.391ZM241.391 1.29688C238.629 1.29688 236.391 3.53545 236.391 6.29688H242.391C242.391 6.84916 241.943 7.29688 241.391 7.29688V1.29688ZM252.039 7.29688C251.487 7.29688 251.039 6.84916 251.039 6.29687H257.039C257.039 3.53545 254.8 1.29688 252.039 1.29688V7.29688ZM165.898 1.29688C163.137 1.29688 160.898 3.53545 160.898 6.29688H166.898C166.898 6.84916 166.451 7.29688 165.898 7.29688V1.29688ZM224.809 6.29688C224.809 3.53545 222.57 1.29688 219.809 1.29688V7.29688C219.256 7.29688 218.809 6.84916 218.809 6.29688H224.809ZM219.809 19.4062C222.57 19.4062 224.809 17.1677 224.809 14.4062H218.809C218.809 13.854 219.256 13.4062 219.809 13.4062V19.4062ZM203.129 18.4062C203.129 18.9585 202.681 19.4062 202.129 19.4062V13.4062C199.367 13.4062 197.129 15.6448 197.129 18.4062H203.129ZM198.129 78C200.89 78 203.129 75.7614 203.129 73H197.129C197.129 72.4477 197.577 72 198.129 72V78ZM182.578 73C182.578 75.7614 184.817 78 187.578 78V72C188.13 72 188.578 72.4477 188.578 73H182.578ZM183.578 19.4062C183.026 19.4062 182.578 18.9585 182.578 18.4063H188.578C188.578 15.6448 186.34 13.4062 183.578 13.4062V19.4062ZM165.898 13.4062C166.451 13.4062 166.898 13.854 166.898 14.4062H160.898C160.898 17.1677 163.137 19.4062 165.898 19.4062V13.4062ZM144.219 78C146.98 78 149.219 75.7614 149.219 73H143.219C143.219 72.4477 143.666 72 144.219 72V78ZM130.459 75.8433C131.393 77.1939 132.93 78 134.572 78V72C134.901 72 135.208 72.1612 135.395 72.4313L130.459 75.8433ZM102.267 33.0781C101.408 33.0781 100.604 32.6564 100.116 31.9499L105.051 28.538C104.419 27.6238 103.379 27.0781 102.267 27.0781V33.0781ZM104.883 30.4625C104.883 31.9071 103.712 33.0781 102.267 33.0781V27.0781C100.398 27.0781 98.8828 28.5934 98.8828 30.4625H104.883ZM99.8828 78C102.644 78 104.883 75.7614 104.883 73H98.8828C98.8828 72.4477 99.3305 72 99.8828 72V78ZM84.2344 73C84.2344 75.7614 86.473 78 89.2344 78V72C89.7867 72 90.2344 72.4477 90.2344 73H84.2344ZM89.2344 1.29688C86.473 1.29688 84.2344 3.53545 84.2344 6.29688H90.2344C90.2344 6.84916 89.7867 7.29688 89.2344 7.29688V1.29688ZM99.0725 7.29688C98.743 7.29688 98.4347 7.13463 98.2482 6.8631L103.194 3.46575C102.261 2.1081 100.72 1.29688 99.0725 1.29688V7.29688ZM131.22 46.2188C132.061 46.2188 132.848 46.6328 133.324 47.3258L128.378 50.7231C129.021 51.6593 130.084 52.2188 131.22 52.2188V46.2188ZM128.668 48.7709C128.668 47.3614 129.811 46.2188 131.22 46.2188V52.2188C133.124 52.2188 134.668 50.6751 134.668 48.7709H128.668ZM133.668 1.29688C130.907 1.29688 128.668 3.53545 128.668 6.29687H134.668C134.668 6.84916 134.22 7.29688 133.668 7.29688V1.29688ZM144.219 7.29688C143.666 7.29688 143.219 6.84916 143.219 6.29687H149.219C149.219 3.53545 146.98 1.29688 144.219 1.29688V7.29688ZM42.2627 45.5762C42.0515 44.9298 42.5332 44.2656 43.2132 44.2656V50.2656C46.6135 50.2656 49.022 46.9449 47.966 43.7128L42.2627 45.5762ZM669.738 1.29688C666.977 1.29688 664.738 3.53545 664.738 6.29688H670.738C670.738 6.84916 670.291 7.29688 669.738 7.29688V1.29688ZM36.8887 23.2148C35.7364 23.2148 34.7148 22.4739 34.357 21.3786L40.0603 19.5152C39.612 18.1431 38.3322 17.2148 36.8887 17.2148V23.2148ZM718.199 6.29688C718.199 3.53545 715.961 1.29688 713.199 1.29688V7.29688C712.647 7.29688 712.199 6.84916 712.199 6.29688H718.199ZM39.4204 21.3786C39.0625 22.4739 38.0409 23.2148 36.8887 23.2148V17.2148C35.4452 17.2148 34.1653 18.1431 33.717 19.5152L39.4204 21.3786ZM713.199 19.4062C715.961 19.4062 718.199 17.1677 718.199 14.4062H712.199C712.199 13.854 712.647 13.4062 713.199 13.4062V19.4062ZM25.8113 43.7128C24.7554 46.9449 27.1639 50.2656 30.5641 50.2656V44.2656C31.2442 44.2656 31.7259 44.9298 31.5147 45.5762L25.8113 43.7128ZM685.387 18.4063C685.387 18.9585 684.939 19.4062 684.387 19.4062V13.4062C681.625 13.4062 679.387 15.6448 679.387 18.4063H685.387ZM1.03912 71.3622C-0.0870278 74.6105 2.32528 78 5.76328 78V72C6.45087 72 6.93334 72.6779 6.70811 73.3276L1.03912 71.3622ZM684.387 30.5938C684.939 30.5938 685.387 31.0415 685.387 31.5937H679.387C679.387 34.3552 681.625 36.5938 684.387 36.5938V30.5938ZM28.8883 1.29688C26.7581 1.29688 24.8618 2.64645 24.1641 4.65908L29.8331 6.62443C29.6935 7.02696 29.3143 7.29688 28.8883 7.29688V1.29688ZM715.758 35.5938C715.758 32.8323 713.519 30.5938 710.758 30.5938V36.5938C710.206 36.5938 709.758 36.146 709.758 35.5938H715.758ZM49.6134 4.66491C48.9174 2.64928 47.0196 1.29688 44.8872 1.29688V7.29688C44.4607 7.29688 44.0812 7.02639 43.942 6.62327L49.6134 4.66491ZM710.758 48.7031C713.519 48.7031 715.758 46.4645 715.758 43.7031H709.758C709.758 43.1508 710.206 42.7031 710.758 42.7031V48.7031ZM67.9201 78C71.3555 78 73.7675 74.6153 72.6462 71.368L66.9748 73.3264C66.7506 72.6769 67.233 72 67.9201 72V78ZM685.387 47.7031C685.387 48.2554 684.939 48.7031 684.387 48.7031V42.7031C681.625 42.7031 679.387 44.9417 679.387 47.7031H685.387ZM51.7017 74.5512C52.373 76.6082 54.2913 78 56.455 78V72C56.8878 72 57.2714 72.2784 57.4057 72.6898L51.7017 74.5512ZM684.387 59.8906C684.939 59.8906 685.387 60.3383 685.387 60.8906H679.387C679.387 63.652 681.625 65.8906 684.387 65.8906V59.8906ZM48.2305 61.6914C47.7978 61.6914 47.4141 61.413 47.2799 61.0017L52.9838 59.1402C52.3125 57.0832 50.3943 55.6914 48.2305 55.6914V61.6914ZM718.297 64.8906C718.297 62.1292 716.058 59.8906 713.297 59.8906V65.8906C712.745 65.8906 712.297 65.4429 712.297 64.8906H718.297ZM26.4975 61.0016C26.3632 61.413 25.9796 61.6914 25.5468 61.6914V55.6914C23.3831 55.6914 21.4648 57.0832 20.7935 59.1402L26.4975 61.0016ZM713.297 78C716.058 78 718.297 75.7614 718.297 73H712.297C712.297 72.4477 712.745 72 713.297 72V78ZM16.3717 72.6898C16.5059 72.2784 16.8896 72 17.3223 72V78C19.4861 78 21.4043 76.6082 22.0756 74.5512L16.3717 72.6898Z" fill="black" mask="url(#path-1-outside-1_367_450)"/>
</svg>
