<svg width="614" height="100" viewBox="0 0 614 100" fill="none" xmlns="http://www.w3.org/2000/svg">
<path d="M0.909762 36.0173C0.407314 33.3019 2.20121 30.6934 4.91654 30.191L29.576 25.6279C34.6974 24.6803 39.3842 24.8724 43.6363 26.2043C47.9145 27.4982 51.4505 29.7902 54.2442 33.0803C57.0699 36.3645 58.9299 40.4232 59.8243 45.2565C60.7305 50.1539 60.4359 54.6444 58.9404 58.7282C57.4391 62.7799 54.8845 66.1493 51.2767 68.8363C47.6689 71.5232 43.2403 73.3524 37.9909 74.3238L35.0013 74.877C31.393 75.5447 29.7092 79.7425 31.856 82.7186L36.1772 88.7091C38.3034 91.6566 36.6742 95.8159 33.1118 96.5353L17.8461 99.6178C15.1081 100.171 12.4482 98.3731 11.9399 95.6264L0.909762 36.0173ZM31.7121 60.7871C35.1311 60.1213 37.638 58.7305 39.2328 56.6147C40.8216 54.4668 41.3157 51.8594 40.7151 48.7925C40.1844 45.7458 38.7989 43.5358 36.5586 42.1628C34.3182 40.7897 31.4826 40.404 28.0517 41.0057L25.8624 41.4109C23.147 41.9133 21.3531 44.5218 21.8556 47.2372L23.6964 57.1855C24.1989 59.9008 26.8074 61.6947 29.5227 61.1922L31.7121 60.7871Z" fill="#256D85"/>
<path d="M142.888 44.3459C143.892 51.8966 143.27 58.5798 141.022 64.3957C138.775 70.2115 135.272 74.8642 130.515 78.3539C125.758 81.8436 120.185 84.0133 113.796 84.863C107.342 85.7213 101.363 85.088 95.8593 82.963C90.351 80.8058 85.7521 77.2141 82.0624 72.1879C78.3728 67.1617 76.028 60.8893 75.0281 53.3709C74.0239 45.8202 74.6456 39.1369 76.8933 33.3211C79.141 27.5053 82.6435 22.8525 87.4007 19.3629C92.1579 15.8732 97.7634 13.6992 104.217 12.8409C110.606 11.9912 116.553 12.6288 122.056 14.7538C127.56 16.8787 132.157 20.4543 135.847 25.4805C139.537 30.5067 141.883 36.7952 142.888 44.3459ZM94.0017 50.8475C94.8557 57.2688 96.8009 62.018 99.8372 65.0951C102.874 68.1722 106.814 69.405 111.658 68.7935C116.462 68.1218 119.927 65.9041 122.054 62.1404C124.18 58.3767 124.8 53.2863 123.914 46.8693C123.088 40.4114 121.157 35.6439 118.121 32.5668C115.084 29.4897 111.162 28.2709 106.354 28.9103C101.514 29.5541 98.0306 31.7578 95.904 35.5215C93.7775 39.2853 93.1434 44.3939 94.0017 50.8475Z" fill="#256D85"/>
<path d="M156.603 12.5168C156.379 9.76446 158.429 7.35182 161.181 7.12802L186.177 5.09553C191.4 4.67078 196.053 5.25592 200.135 6.85094C204.248 8.44334 207.523 10.9532 209.957 14.3804C212.388 17.7753 213.803 21.9223 214.202 26.8215C214.592 31.6233 213.873 35.8296 212.043 39.4402C211.017 41.4797 209.679 43.2841 208.03 44.8535C205.946 46.8375 205.105 50.0301 206.683 52.437L215.713 66.2128C217.793 69.3865 215.719 73.6299 211.936 73.9374L203.171 74.6501C201.33 74.7998 199.557 73.9227 198.559 72.3689L187.24 54.7483C186.333 53.3353 184.72 52.5376 183.046 52.6738V52.6738C180.543 52.8773 178.679 55.0713 178.883 57.5742L180.016 71.5164C180.24 74.2688 178.19 76.6814 175.438 76.9052L166.911 77.5986C164.159 77.8224 161.746 75.7726 161.523 73.0202L156.603 12.5168ZM184.538 37.9537C191.903 37.3548 195.334 34.1691 194.832 28.3965C194.616 25.344 193.492 23.1656 191.459 21.8612C189.456 20.5218 186.669 19.9809 183.097 20.2387L180.878 20.4192C178.126 20.643 176.076 23.0556 176.3 25.8079L176.93 33.5558C177.153 36.3081 179.566 38.3579 182.318 38.1341L184.538 37.9537Z" fill="#256D85"/>
<path d="M226.911 7.08648C226.818 4.32663 228.979 2.01385 231.739 1.92074L282.648 0.203311C285.408 0.110205 287.72 2.27203 287.814 5.03189L287.983 10.0681C288.077 12.8279 285.915 15.1407 283.155 15.2338L271.872 15.6145C269.112 15.7076 266.951 18.0203 267.044 20.7802L268.583 66.4183C268.676 69.1781 266.515 71.4909 263.755 71.584L255.4 71.8659C252.64 71.959 250.327 69.7972 250.234 67.0373L248.695 21.3992C248.602 18.6393 246.289 16.4775 243.529 16.5706L232.246 16.9513C229.487 17.0444 227.174 14.8825 227.081 12.1227L226.911 7.08648Z" fill="#256D85"/>
<path d="M303.351 4.9997C303.382 2.23844 305.645 0.024665 308.406 0.0550907L347.72 0.488284C350.481 0.51871 352.695 2.78181 352.665 5.54306L352.609 10.5818C352.579 13.3431 350.316 15.5569 347.554 15.5264L326.794 15.2977C324.033 15.2673 321.77 17.481 321.739 20.2423L321.708 23.0351C321.678 25.7963 323.892 28.0594 326.653 28.0899L344.289 28.2842C347.05 28.3146 349.264 30.5777 349.233 33.339L349.178 38.3777C349.147 41.139 346.884 43.3528 344.123 43.3223L326.487 43.128C323.726 43.0976 321.463 45.3114 321.432 48.0726L321.236 65.9036C321.206 68.6648 318.942 70.8786 316.181 70.8482L307.627 70.7539C304.866 70.7235 302.652 68.4604 302.682 65.6991L303.351 4.9997Z" fill="#256D85"/>
<path d="M434.017 40.2088C433.564 47.8125 431.681 54.255 428.367 59.5362C425.052 64.8174 420.728 68.7178 415.393 71.2374C410.058 73.757 404.174 74.8254 397.74 74.4426C391.241 74.0559 385.492 72.2953 380.494 69.1608C375.497 65.9939 371.667 61.5919 369.002 55.9549C366.337 50.318 365.23 43.7139 365.681 36.1426C366.133 28.5389 368.017 22.0964 371.331 16.8152C374.645 11.534 378.97 7.63356 384.305 5.11396C389.64 2.59436 395.556 1.5279 402.055 1.91461C408.489 2.29744 414.205 4.05609 419.204 7.19055C424.202 10.325 428.034 14.7107 430.699 20.3477C433.363 25.9847 434.469 32.605 434.017 40.2088ZM384.788 37.2795C384.403 43.7459 385.408 48.7787 387.802 52.3778C390.197 55.9769 393.83 57.9377 398.703 58.2603C403.546 58.5159 407.37 56.9988 410.175 53.709C412.979 50.4193 414.558 45.5402 414.91 39.0719C415.329 32.5749 414.342 27.5268 411.947 23.9277C409.552 20.3286 405.934 18.385 401.092 18.0969C396.218 17.8069 392.379 19.3068 389.574 22.5965C386.77 25.8863 385.174 30.7806 384.788 37.2795Z" fill="#256D85"/>
<path d="M453.374 11.6339C453.67 8.88841 456.136 6.90297 458.882 7.19928L467.387 8.11725C470.133 8.41357 472.118 10.8794 471.822 13.6249L466.922 59.0253C466.625 61.7708 468.611 64.2367 471.356 64.533L490.056 66.5512C492.802 66.8475 494.787 69.3134 494.491 72.0589L493.95 77.0689C493.654 79.8143 491.188 81.7998 488.443 81.5035L451.295 77.4942C448.549 77.1979 446.564 74.732 446.86 71.9865L453.374 11.6339Z" fill="#256D85"/>
<path d="M525.622 81.5235C525.238 84.2582 522.711 86.1645 519.976 85.7812L511.504 84.594C508.769 84.2107 506.863 81.6831 507.246 78.9484L515.671 18.8328C516.054 16.0981 518.582 14.1918 521.316 14.5751L529.788 15.7623C532.523 16.1455 534.429 18.6731 534.046 21.4078L525.622 81.5235Z" fill="#256D85"/>
<path d="M612.971 65.6192C611.62 73.1157 608.986 79.2894 605.069 84.1403C601.152 88.9912 596.395 92.3512 590.799 94.2204C585.203 96.0896 579.234 96.4527 572.89 95.3096C566.483 94.1549 560.984 91.725 556.392 88.02C551.807 84.2828 548.525 79.4577 546.548 73.5445C544.57 67.6313 544.254 60.9425 545.599 53.4781C546.95 45.9817 549.584 39.808 553.502 34.9571C557.419 30.1062 562.175 26.7461 567.771 24.8769C573.367 23.0077 579.369 22.6505 585.776 23.8051C592.119 24.9482 597.587 27.3723 602.178 31.0774C606.77 34.7825 610.054 39.5916 612.031 45.5048C614.009 51.418 614.322 58.1228 612.971 65.6192ZM564.437 56.8728C563.288 63.2479 563.689 68.3644 565.64 72.2221C567.591 76.0797 570.966 78.4576 575.766 79.3556C580.545 80.1838 584.522 79.1309 587.696 76.1969C590.871 73.263 593.017 68.6055 594.134 62.2246C595.321 55.8231 594.939 50.6936 592.988 46.8359C591.037 42.9782 587.675 40.6193 582.901 39.7591C578.096 38.8931 574.106 39.9271 570.931 42.861C567.756 45.795 565.591 50.4656 564.437 56.8728Z" fill="#256D85"/>
</svg>
